# xmcd CD database file
#
# Track frame offsets:
#	150
#	27084
#	63183
#	91676
#	116821
#	152222
#	174808
#	212241
#	233530
#	281717
#
# Disc length: 4057 seconds
#
# Revision: 0
# Processed by: cddbd v1.5PL3 Copyright (c) Steve Scherf et al.
# Submitted via: CDex 1.51
#
DISCID=7a0fd70a
DTITLE=Tim Mac Brian - Transparence
DYEAR=2000
DGENRE=New Age
TTITLE0=The Old World Memory
TTITLE1=Transparency
TTITLE2=To The Heart Of Legends
TTITLE3=Echoes And Vibration
TTITLE4=Memory Of The Stone
TTITLE5=East Perfumes
TTITLE6=The Emerald Forest
TTITLE7=The Silver Cliffs
TTITLE8=Mountains Of Births World
TTITLE9=The Master Of The Fire
EXTD=YEAR: 2000
EXTT0=
EXTT1=
EXTT2=
EXTT3=
EXTT4=
EXTT5=
EXTT6=
EXTT7=
EXTT8=
EXTT9=
PLAYORDER=
